<svg xmlns="http://www.w3.org/2000/svg" viewBox="0 0 480 220" width="480" height="220">
  <!-- Dashed container box -->
  <rect x="60" y="10" width="360" height="160" rx="12" ry="12" fill="none" stroke="#C83232" stroke-width="2.5" stroke-dasharray="10,6"/>

  <!-- Pixel-art lobster - built from small rectangles -->
  <!-- Antennae -->
  <rect x="168" y="28" width="6" height="6" fill="#EA4647"/>
  <rect x="174" y="22" width="6" height="6" fill="#EA4647"/>
  <rect x="180" y="16" width="6" height="6" fill="#EA4647"/>
  <rect x="300" y="28" width="6" height="6" fill="#EA4647"/>
  <rect x="294" y="22" width="6" height="6" fill="#EA4647"/>
  <rect x="288" y="16" width="6" height="6" fill="#EA4647"/>

  <!-- Left claw -->
  <rect x="120" y="40" width="8" height="8" fill="#EA4647"/>
  <rect x="128" y="40" width="8" height="8" fill="#EA4647"/>
  <rect x="112" y="48" width="8" height="8" fill="#EA4647"/>
  <rect x="136" y="48" width="8" height="8" fill="#EA4647"/>
  <rect x="112" y="56" width="8" height="8" fill="#EA4647"/>
  <rect x="136" y="56" width="8" height="8" fill="#EA4647"/>
  <rect x="120" y="64" width="8" height="8" fill="#EA4647"/>
  <rect x="128" y="64" width="8" height="8" fill="#EA4647"/>
  <rect x="144" y="56" width="8" height="8" fill="#EA4647"/>
  <rect x="152" y="56" width="8" height="8" fill="#EA4647"/>
  <rect x="160" y="56" width="8" height="8" fill="#EA4647"/>

  <!-- Right claw (mirrored) -->
  <rect x="336" y="40" width="8" height="8" fill="#EA4647"/>
  <rect x="344" y="40" width="8" height="8" fill="#EA4647"/>
  <rect x="328" y="48" width="8" height="8" fill="#EA4647"/>
  <rect x="352" y="48" width="8" height="8" fill="#EA4647"/>
  <rect x="328" y="56" width="8" height="8" fill="#EA4647"/>
  <rect x="352" y="56" width="8" height="8" fill="#EA4647"/>
  <rect x="336" y="64" width="8" height="8" fill="#EA4647"/>
  <rect x="344" y="64" width="8" height="8" fill="#EA4647"/>
  <rect x="312" y="56" width="8" height="8" fill="#EA4647"/>
  <rect x="304" y="56" width="8" height="8" fill="#EA4647"/>
  <rect x="320" y="56" width="8" height="8" fill="#EA4647"/>

  <!-- Head -->
  <rect x="192" y="34" width="8" height="8" fill="#EA4647"/>
  <rect x="200" y="34" width="8" height="8" fill="#EA4647"/>
  <rect x="208" y="34" width="8" height="8" fill="#EA4647"/>
  <rect x="216" y="34" width="8" height="8" fill="#EA4647"/>
  <rect x="224" y="34" width="8" height="8" fill="#EA4647"/>
  <rect x="232" y="34" width="8" height="8" fill="#EA4647"/>
  <rect x="240" y="34" width="8" height="8" fill="#EA4647"/>
  <rect x="248" y="34" width="8" height="8" fill="#EA4647"/>
  <rect x="256" y="34" width="8" height="8" fill="#EA4647"/>
  <rect x="264" y="34" width="8" height="8" fill="#EA4647"/>
  <rect x="272" y="34" width="8" height="8" fill="#EA4647"/>
  <rect x="280" y="34" width="8" height="8" fill="#EA4647"/>

  <!-- Eyes -->
  <rect x="208" y="42" width="8" height="8" fill="#ffffff"/>
  <rect x="256" y="42" width="8" height="8" fill="#ffffff"/>

  <!-- Body rows -->
  <rect x="184" y="42" width="8" height="8" fill="#EA4647"/>
  <rect x="192" y="42" width="8" height="8" fill="#EA4647"/>
  <rect x="200" y="42" width="8" height="8" fill="#EA4647"/>
  <rect x="216" y="42" width="8" height="8" fill="#EA4647"/>
  <rect x="224" y="42" width="8" height="8" fill="#EA4647"/>
  <rect x="232" y="42" width="8" height="8" fill="#EA4647"/>
  <rect x="240" y="42" width="8" height="8" fill="#EA4647"/>
  <rect x="248" y="42" width="8" height="8" fill="#EA4647"/>
  <rect x="264" y="42" width="8" height="8" fill="#EA4647"/>
  <rect x="272" y="42" width="8" height="8" fill="#EA4647"/>
  <rect x="280" y="42" width="8" height="8" fill="#EA4647"/>
  <rect x="288" y="42" width="8" height="8" fill="#EA4647"/>

  <!-- Body middle -->
  <rect x="176" y="50" width="8" height="8" fill="#EA4647"/>
  <rect x="184" y="50" width="8" height="8" fill="#EA4647"/>
  <rect x="192" y="50" width="8" height="8" fill="#EA4647"/>
  <rect x="200" y="50" width="8" height="8" fill="#EA4647"/>
  <rect x="208" y="50" width="8" height="8" fill="#EA4647"/>
  <rect x="216" y="50" width="8" height="8" fill="#EA4647"/>
  <rect x="224" y="50" width="8" height="8" fill="#EA4647"/>
  <rect x="232" y="50" width="8" height="8" fill="#EA4647"/>
  <rect x="240" y="50" width="8" height="8" fill="#EA4647"/>
  <rect x="248" y="50" width="8" height="8" fill="#EA4647"/>
  <rect x="256" y="50" width="8" height="8" fill="#EA4647"/>
  <rect x="264" y="50" width="8" height="8" fill="#EA4647"/>
  <rect x="272" y="50" width="8" height="8" fill="#EA4647"/>
  <rect x="280" y="50" width="8" height="8" fill="#EA4647"/>
  <rect x="288" y="50" width="8" height="8" fill="#EA4647"/>
  <rect x="296" y="50" width="8" height="8" fill="#EA4647"/>

  <!-- Body segments -->
  <rect x="184" y="58" width="8" height="8" fill="#D13C3D"/>
  <rect x="192" y="58" width="8" height="8" fill="#EA4647"/>
  <rect x="200" y="58" width="8" height="8" fill="#EA4647"/>
  <rect x="208" y="58" width="8" height="8" fill="#D13C3D"/>
  <rect x="216" y="58" width="8" height="8" fill="#EA4647"/>
  <rect x="224" y="58" width="8" height="8" fill="#EA4647"/>
  <rect x="232" y="58" width="8" height="8" fill="#D13C3D"/>
  <rect x="240" y="58" width="8" height="8" fill="#EA4647"/>
  <rect x="248" y="58" width="8" height="8" fill="#EA4647"/>
  <rect x="256" y="58" width="8" height="8" fill="#D13C3D"/>
  <rect x="264" y="58" width="8" height="8" fill="#EA4647"/>
  <rect x="272" y="58" width="8" height="8" fill="#EA4647"/>
  <rect x="280" y="58" width="8" height="8" fill="#D13C3D"/>
  <rect x="288" y="58" width="8" height="8" fill="#EA4647"/>

  <!-- Tail segments (narrowing) -->
  <rect x="200" y="66" width="8" height="8" fill="#EA4647"/>
  <rect x="208" y="66" width="8" height="8" fill="#EA4647"/>
  <rect x="216" y="66" width="8" height="8" fill="#EA4647"/>
  <rect x="224" y="66" width="8" height="8" fill="#EA4647"/>
  <rect x="232" y="66" width="8" height="8" fill="#EA4647"/>
  <rect x="240" y="66" width="8" height="8" fill="#EA4647"/>
  <rect x="248" y="66" width="8" height="8" fill="#EA4647"/>
  <rect x="256" y="66" width="8" height="8" fill="#EA4647"/>
  <rect x="264" y="66" width="8" height="8" fill="#EA4647"/>
  <rect x="272" y="66" width="8" height="8" fill="#EA4647"/>

  <rect x="216" y="74" width="8" height="8" fill="#EA4647"/>
  <rect x="224" y="74" width="8" height="8" fill="#EA4647"/>
  <rect x="232" y="74" width="8" height="8" fill="#EA4647"/>
  <rect x="240" y="74" width="8" height="8" fill="#EA4647"/>
  <rect x="248" y="74" width="8" height="8" fill="#EA4647"/>
  <rect x="256" y="74" width="8" height="8" fill="#EA4647"/>

  <!-- Tail fan -->
  <rect x="208" y="82" width="8" height="8" fill="#EA4647"/>
  <rect x="224" y="82" width="8" height="8" fill="#EA4647"/>
  <rect x="240" y="82" width="8" height="8" fill="#EA4647"/>
  <rect x="256" y="82" width="8" height="8" fill="#EA4647"/>

  <!-- Legs (3 pairs) -->
  <rect x="200" y="58" width="6" height="6" fill="#D13C3D"/>
  <rect x="194" y="64" width="6" height="6" fill="#D13C3D"/>
  <rect x="224" y="58" width="6" height="6" fill="#D13C3D"/>
  <rect x="218" y="64" width="6" height="6" fill="#D13C3D"/>
  <rect x="248" y="58" width="6" height="6" fill="#D13C3D"/>
  <rect x="242" y="64" width="6" height="6" fill="#D13C3D"/>
  <rect x="272" y="58" width="6" height="6" fill="#D13C3D"/>
  <rect x="278" y="64" width="6" height="6" fill="#D13C3D"/>

  <!-- Shield icon (bottom-right of lobster) -->
  <path d="M370,80 L370,100 Q370,116 356,124 Q342,116 342,100 L342,80 L356,74 Z" fill="none" stroke="#C83232" stroke-width="2"/>
  <path d="M350,96 L354,100 L362,90" fill="none" stroke="#EA4647" stroke-width="2.5" stroke-linecap="round" stroke-linejoin="round"/>

  <!-- Sand dots at bottom of container (sandbox feel) -->
  <rect x="90" y="148" width="4" height="4" rx="1" fill="#C83232" opacity="0.4"/>
  <rect x="110" y="150" width="3" height="3" rx="1" fill="#C83232" opacity="0.3"/>
  <rect x="140" y="147" width="5" height="5" rx="1" fill="#C83232" opacity="0.35"/>
  <rect x="180" y="149" width="4" height="4" rx="1" fill="#C83232" opacity="0.25"/>
  <rect x="220" y="148" width="3" height="3" rx="1" fill="#C83232" opacity="0.4"/>
  <rect x="260" y="150" width="4" height="4" rx="1" fill="#C83232" opacity="0.3"/>
  <rect x="300" y="147" width="5" height="5" rx="1" fill="#C83232" opacity="0.35"/>
  <rect x="340" y="149" width="3" height="3" rx="1" fill="#C83232" opacity="0.25"/>
  <rect x="370" y="148" width="4" height="4" rx="1" fill="#C83232" opacity="0.4"/>
  <rect x="390" y="150" width="3" height="3" rx="1" fill="#C83232" opacity="0.3"/>

  <!-- Text: openclaw-sandbox -->
  <text x="240" y="198" text-anchor="middle" font-family="'Courier New', Courier, monospace" font-size="22" font-weight="bold" fill="#ffffff" letter-spacing="1">openclaw-sandbox</text>

  <!-- Subtitle -->
  <text x="240" y="214" text-anchor="middle" font-family="'Courier New', Courier, monospace" font-size="10" fill="#C83232" letter-spacing="0.5">security testing for AI agents</text>
</svg>
